<svg xmlns="http://www.w3.org/2000/svg" width="2400" height="2394" viewBox="0 0 2400 2394" version="1.1"><path d="M 2398 1151.833 C 2398 1162.539, 2398.374 1169, 2398.994 1169 C 2399.910 1169, 2399.297 1136.164, 2398.361 1135.083 C 2398.162 1134.854, 2398 1142.392, 2398 1151.833 M 2398 1177.500 C 2398 1181.833, 2398.422 1185, 2399 1185 C 2399.578 1185, 2400 1181.833, 2400 1177.500 C 2400 1173.167, 2399.578 1170, 2399 1170 C 2398.422 1170, 2398 1173.167, 2398 1177.500 M 2398 1238.667 C 2398 1250.583, 2398.162 1260.146, 2398.361 1259.917 C 2399.296 1258.838, 2399.914 1217, 2398.995 1217 C 2398.366 1217, 2398 1224.962, 2398 1238.667" stroke="none" fill="#c4444c" fill-rule="evenodd"/><path d="M 1118.663 4.053 C 1103.903 4.453, 1087.028 5.057, 1081.163 5.394 C 1075.298 5.732, 1061.725 6.457, 1051 7.006 C 1023.693 8.403, 1001.211 9.923, 996.500 10.692 C 994.300 11.050, 991.375 11.249, 990 11.134 C 984.473 10.670, 913.672 17.128, 870 22.081 C 789.647 31.193, 687.242 47.153, 629.894 59.503 C 604.103 65.057, 569.914 73.546, 554.500 78.224 C 550.650 79.392, 546.911 80.459, 546.191 80.594 C 544.035 80.999, 525.331 86.886, 512.500 91.198 C 423.593 121.074, 350.343 160.761, 287 213.373 C 269.079 228.258, 234.118 263.010, 219.158 280.809 C 186.598 319.549, 161.588 357.888, 137.539 405.922 C 126.787 427.398, 112.347 459.904, 111.606 464.303 C 111.495 464.961, 110.835 466.535, 110.140 467.799 C 107.465 472.668, 94.633 509.307, 88.063 530.834 C 72.392 582.187, 62.403 626.252, 50.448 696.775 C 45.230 727.554, 44.077 734.871, 38.435 773 C 33.118 808.929, 26.265 865.182, 22.538 903.500 C 21.681 912.300, 20.498 924.059, 19.907 929.631 C 19.317 935.203, 18.945 940.603, 19.080 941.631 C 19.215 942.659, 19.032 945.075, 18.672 947 C 18.082 950.156, 16.922 964.894, 13.990 1006.500 C 12.769 1023.822, 11.284 1051.365, 10.432 1072.500 C 10.078 1081.300, 9.620 1089.850, 9.416 1091.500 C 9.211 1093.150, 8.802 1112.050, 8.507 1133.500 C 8.211 1154.950, 7.759 1176.775, 7.503 1182 C 7.019 1191.876, 8.692 1301.068, 9.430 1307.715 C 9.661 1309.797, 10.126 1318.250, 10.463 1326.500 C 11.345 1348.062, 12.863 1376.236, 14.045 1393 C 17.087 1436.123, 17.209 1437.653, 20.482 1473.500 C 23.838 1510.249, 30.088 1566.516, 32.977 1586 C 33.508 1589.575, 35.108 1601.050, 36.534 1611.500 C 43.539 1662.840, 54.042 1725.963, 62.075 1765 C 96.934 1934.388, 158.723 2060.524, 252.313 2153.352 C 268.096 2169.006, 290.988 2189.125, 292.179 2188.389 C 292.658 2188.093, 292.926 2188.275, 292.775 2188.792 C 292.309 2190.387, 331.224 2220, 333.785 2220 C 334.362 2220, 334.983 2220.399, 335.167 2220.886 C 335.688 2222.271, 356.875 2235.788, 374.500 2245.978 C 454.845 2292.434, 554.809 2326.348, 674 2347.587 C 741.485 2359.612, 811.128 2369.788, 871.592 2376.459 C 908.736 2380.556, 911.932 2380.892, 924.500 2382.017 C 931.100 2382.608, 943.250 2383.731, 951.500 2384.511 C 986.313 2387.806, 1064.427 2393.027, 1088.750 2393.685 C 1098.986 2393.962, 1104 2393.753, 1104 2393.049 C 1104 2392.450, 1106.039 2392.043, 1108.750 2392.100 C 1112.615 2392.181, 1113.034 2392.348, 1111 2392.997 C 1109.625 2393.436, 1151.250 2393.791, 1203.500 2393.787 C 1255.750 2393.784, 1297.375 2393.425, 1296 2392.990 C 1294.046 2392.372, 1294.646 2392.178, 1298.750 2392.100 C 1302.329 2392.032, 1304.005 2392.398, 1304.015 2393.250 C 1304.026 2394.097, 1304.372 2394.017, 1305.091 2393 C 1305.890 2391.871, 1306.278 2391.809, 1306.659 2392.750 C 1307.252 2394.210, 1339 2394.597, 1339 2393.145 C 1339 2392.674, 1345.638 2391.976, 1353.750 2391.594 C 1437.591 2387.640, 1543.948 2377.050, 1635.500 2363.540 C 1688.590 2355.706, 1753.618 2344.402, 1779.500 2338.507 C 1782.800 2337.756, 1791.800 2335.706, 1799.500 2333.953 C 1857.706 2320.700, 1917.844 2301.037, 1967.500 2279.024 C 1984.572 2271.456, 2023 2252.106, 2023 2251.078 C 2023 2250.668, 2023.573 2250.333, 2024.273 2250.333 C 2028.998 2250.333, 2097.774 2205.062, 2096.408 2202.851 C 2096.119 2202.383, 2096.696 2201.993, 2097.691 2201.985 C 2099.606 2201.970, 2120.416 2185.345, 2135.500 2171.781 C 2209.524 2105.214, 2268.033 2014.316, 2306.094 1906.752 C 2333.384 1829.626, 2350.528 1752.288, 2368.997 1623 C 2373.888 1588.758, 2379.150 1546.802, 2381.976 1519.500 C 2382.602 1513.450, 2383.531 1504.900, 2384.040 1500.500 C 2385.077 1491.536, 2389.547 1441.843, 2390.427 1429.500 C 2390.741 1425.100, 2391.653 1412.725, 2392.454 1402 C 2393.937 1382.146, 2395.247 1359.718, 2397.068 1323 C 2397.627 1311.725, 2398.456 1300.025, 2398.909 1297 C 2399.362 1293.975, 2399.711 1277.775, 2399.686 1261 C 2399.650 1237.340, 2399.503 1233.864, 2399.029 1245.500 L 2398.418 1260.500 2398.209 1238.750 C 2398.047 1221.912, 2398.282 1216.997, 2399.250 1216.985 C 2400.084 1216.974, 2400.004 1216.656, 2399.008 1216.026 C 2397.820 1215.275, 2397.770 1214.830, 2398.758 1213.842 C 2400.315 1212.285, 2400.544 1185, 2399 1185 C 2397.473 1185, 2397.713 1170.282, 2399.250 1169.662 C 2400.250 1169.259, 2400.250 1169.142, 2399.250 1169.079 C 2398.293 1169.019, 2398.047 1164.956, 2398.201 1151.750 L 2398.402 1134.500 2399.024 1146.500 C 2399.513 1155.933, 2399.655 1153.366, 2399.688 1134.500 C 2399.711 1121.300, 2399.356 1107.350, 2398.899 1103.500 C 2398.442 1099.650, 2397.611 1087.050, 2397.052 1075.500 C 2394.048 1013.407, 2388.357 935.518, 2384.045 897.500 C 2383.483 892.550, 2382.317 881.975, 2381.452 874 C 2378.868 850.157, 2378.089 843.582, 2374.943 819 C 2370.052 780.797, 2367.403 762.714, 2359.930 716.500 C 2345.329 626.217, 2331.952 568.477, 2311.487 507.414 C 2281.940 419.248, 2242.453 346.492, 2189.418 282.500 C 2175.907 266.198, 2137.531 227.795, 2121 214.035 C 2030.116 138.384, 1914.150 87.002, 1768 57.630 C 1711.017 46.179, 1635.404 34.128, 1570 26.075 C 1526.395 20.706, 1530.407 21.157, 1489 16.975 C 1429.980 11.013, 1347.735 5.824, 1283.500 4.008 C 1244.610 2.910, 1159.962 2.932, 1118.663 4.053 M 1469 768.034 C 1437.842 769.010, 1417.092 771.422, 1391 777.101 C 1379.008 779.712, 1349.624 788.093, 1340.784 791.425 C 1327.213 796.541, 1298.183 810.020, 1295.087 812.642 C 1294.861 812.834, 1301.430 819.631, 1309.686 827.746 C 1327.030 844.794, 1340.267 859.758, 1339.336 861.265 C 1338.981 861.839, 1339.151 862.025, 1339.712 861.678 C 1341.452 860.603, 1361.028 886.843, 1374.271 908 C 1384.054 923.629, 1395.167 944.614, 1402.602 961.500 C 1406.235 969.750, 1409.302 976.604, 1409.418 976.731 C 1409.534 976.858, 1412.764 975.644, 1416.596 974.034 C 1433.303 967.015, 1452.491 963.665, 1475.500 963.750 C 1550.135 964.027, 1609.115 1010.771, 1621.550 1079.500 C 1622.787 1086.340, 1622.997 1123.163, 1622.999 1333.500 L 1623 1579.500 1734.750 1579.255 L 1846.500 1579.009 1846.797 1362.255 C 1847.104 1137.773, 1846.809 1116.399, 1843.042 1090 C 1839.219 1063.203, 1832.271 1035.630, 1822.969 1010.341 C 1816.385 992.439, 1800.406 959.994, 1790.117 943.634 C 1785.667 936.558, 1782.314 930.301, 1782.667 929.730 C 1783.020 929.158, 1782.848 928.976, 1782.284 929.324 C 1781.721 929.672, 1779.297 927.159, 1776.897 923.738 C 1771.208 915.627, 1758.970 900.299, 1751.228 891.586 C 1747.849 887.784, 1745.363 884.184, 1745.703 883.586 C 1746.043 882.989, 1745.955 882.831, 1745.507 883.236 C 1745.060 883.641, 1739.700 879.141, 1733.597 873.236 C 1683.825 825.083, 1621.684 790.870, 1559 777.110 C 1539.211 772.766, 1510.119 769.011, 1496.191 769.003 C 1492.907 769.001, 1491.118 768.619, 1491.500 768 C 1491.840 767.450, 1491.979 767.074, 1491.809 767.164 C 1491.639 767.255, 1481.375 767.646, 1469 768.034 M 901 770.547 C 823.531 776.906, 750.503 807.636, 690.356 859.184 C 684.777 863.966, 679.867 867.568, 679.446 867.189 C 679.024 866.810, 678.944 866.967, 679.267 867.537 C 679.591 868.108, 675.335 873.058, 669.811 878.537 C 610.458 937.409, 572.506 1015.760, 563.022 1099 C 560.491 1121.218, 560.233 1146.249, 560.363 1357.259 L 560.500 1579.018 672 1579.018 L 783.500 1579.018 784.042 1330.759 C 784.534 1105.649, 784.737 1081.847, 786.220 1075.500 C 791.834 1051.478, 801.596 1031.978, 816.919 1014.174 C 853.977 971.117, 919.612 953.684, 979.559 970.976 C 1036.252 987.329, 1074.834 1031.942, 1080.945 1088.211 C 1081.655 1094.746, 1082 1176.666, 1082 1338.711 L 1082 1579.500 1193.532 1579.500 L 1305.064 1579.500 1304.749 1346 L 1304.434 1112.500 1302.175 1096.500 C 1298.224 1068.522, 1293.493 1047.579, 1286.024 1025 C 1273.251 986.385, 1254.262 950.141, 1229.705 917.500 C 1226.394 913.100, 1223.682 908.938, 1223.676 908.250 C 1223.671 907.563, 1223.446 907.221, 1223.175 907.491 C 1222.281 908.385, 1220 905.789, 1220 903.878 C 1220 902.845, 1219.351 902, 1218.557 902 C 1217.763 902, 1216.525 901.173, 1215.807 900.162 C 1212.382 895.344, 1203.489 885.512, 1193.500 875.500 C 1140.628 822.503, 1069.092 786.213, 993.500 774.041 C 989.650 773.421, 985.150 772.694, 983.500 772.425 C 981.850 772.156, 972.410 771.275, 962.523 770.468 C 941.498 768.751, 922.586 768.776, 901 770.547" stroke="none" fill="#e3343c" fill-rule="evenodd"/></svg>