<?xml version="1.0" standalone="no"?>
<!DOCTYPE svg PUBLIC "-//W3C//DTD SVG 20010904//EN"
 "http://www.w3.org/TR/2001/REC-SVG-20010904/DTD/svg10.dtd">
<svg version="1.0" xmlns="http://www.w3.org/2000/svg"
 width="2400.000000pt" height="2394.000000pt" viewBox="0 0 2400.000000 2394.000000"
 preserveAspectRatio="xMidYMid meet">

<g transform="translate(0.000000,2394.000000) scale(0.100000,-0.100000)"
fill="#000000" stroke="none">
<path d="M11545 23899 c-634 -10 -1207 -38 -1895 -94 -1325 -109 -2812 -329
-3720 -552 -1255 -307 -2270 -790 -3070 -1462 -144 -121 -452 -421 -580 -566
-564 -639 -990 -1399 -1309 -2338 -208 -611 -337 -1163 -485 -2067 -427 -2608
-514 -5131 -265 -7710 85 -883 221 -1852 370 -2635 244 -1280 634 -2313 1194
-3160 920 -1391 2353 -2280 4410 -2735 943 -209 2517 -425 3710 -509 931 -66
929 -66 2135 -66 1157 0 1158 0 1905 50 909 62 1746 154 2632 291 782 120
1318 227 1813 360 87 24 135 38 329 95 132 39 454 151 617 215 1108 435 1946
1026 2615 1844 677 827 1158 1905 1458 3265 140 638 305 1703 405 2630 22 203
35 335 76 790 9 99 41 568 55 800 35 588 40 776 40 1600 0 468 -3 893 -7 945
-4 52 -10 156 -13 230 -56 1383 -219 2853 -466 4200 -243 1328 -637 2389
-1204 3245 -262 396 -509 689 -865 1027 -852 809 -2019 1379 -3505 1712 -803
180 -2153 381 -3205 475 -1113 101 -2060 136 -3175 120z m3391 -7639 c563 -33
955 -131 1414 -352 166 -80 255 -131 440 -254 957 -631 1568 -1662 1670 -2814
6 -73 10 -943 10 -2407 l0 -2293 -1120 0 -1120 0 0 2423 c0 2631 2 2531 -55
2731 -35 123 -128 313 -205 416 -290 392 -785 614 -1308 586 -193 -11 -328
-39 -490 -102 l-82 -32 -14 31 c-7 18 -26 61 -41 97 -41 98 -170 353 -233 460
-191 328 -408 608 -690 889 -135 134 -171 175 -161 183 32 22 303 149 409 191
316 126 780 225 1150 246 202 12 232 12 426 1z m-5221 -25 c187 -20 355 -49
522 -91 509 -127 968 -350 1378 -669 129 -100 359 -308 407 -367 18 -23 65
-78 103 -122 442 -505 737 -1108 864 -1766 59 -302 55 -120 58 -2707 l3 -2373
-1120 0 -1120 0 0 2428 c0 1700 -3 2454 -11 2517 -70 573 -493 1024 -1089
1161 -319 73 -691 48 -981 -65 -453 -177 -771 -554 -866 -1028 -16 -83 -18
-238 -20 -2550 l-3 -2463 -1120 0 -1121 0 4 2358 3 2357 22 151 c55 379 145
697 294 1034 397 899 1178 1635 2098 1978 547 204 1112 276 1695 217z"/>
</g>
</svg>
